<svg width="147" height="141" viewBox="0 0 147 141" fill="none" xmlns="http://www.w3.org/2000/svg">
<path d="M59.5763 67.7765C52.9253 75.4958 52.5861 84.9573 59.6768 93.2068C54.9539 98.1805 53.6601 104.164 54.8471 110.874C55.9964 117.35 59.7647 121.421 66.2335 121.894C72.47 122.355 78.7567 122.241 85.0183 122.203C87.3672 122.191 89.0504 120.909 88.9185 118.271C88.7992 115.797 87.1411 114.844 84.8865 114.825C79.9752 114.787 75.0638 114.825 70.1588 114.8C65.4045 114.781 61.7996 110.874 61.8184 105.786C61.831 100.693 65.4171 96.8109 70.2216 96.7856C76.8035 96.7478 83.3854 96.7793 89.9673 96.773C90.9094 96.773 91.8452 96.7414 92.7873 96.7288C95.1864 96.6973 96.6434 95.3718 96.6309 93.0869C96.6183 90.7894 95.1173 89.4892 92.7307 89.4828C85.4203 89.4639 78.1036 89.4702 70.7931 89.4513C66.221 89.445 63.3697 87.2611 62.1638 82.8744C61.0899 78.98 62.8923 74.063 66.3026 72.1758C67.3326 71.6077 68.6892 71.4373 69.9013 71.4184C75.5412 71.3426 81.181 71.3994 86.8271 71.3805C90.4195 71.3679 91.952 70.2949 92.0085 67.8143C92.0713 65.2454 90.4007 64.002 86.6889 63.9767C81.3631 63.9452 76.031 63.9767 70.7052 63.9641C65.4987 63.9515 62.1575 60.764 61.8372 55.5252C61.5421 50.6714 65.235 45.5588 69.8322 45.4768C81.5264 45.2685 93.252 45.0223 104.915 45.6472C114.053 46.1395 118.694 57.9994 113.092 65.3401C112.087 66.6593 110.831 67.7891 110.146 68.5149C113.638 69.7521 117.871 70.5221 121.263 72.6429C125.119 75.0603 126.3 79.4533 125.69 84.0484C124.792 90.8462 119.774 94.3745 109.908 94.9173C113.877 98.1869 116.653 101.804 116.358 106.941C116.063 112.092 113.211 115.576 108.13 118.593C117.633 118.593 126.143 118.618 134.659 118.58C137.918 118.568 140.889 119.319 143.301 121.604C146.523 124.659 147.773 128.383 146.523 132.738C145.248 137.15 142.396 139.933 137.793 140.678C136.562 140.874 135.3 140.994 134.056 140.994C101.046 141 68.0298 140.994 35.0197 140.975C20.5182 140.962 9.58396 134.72 3.36004 121.478C1.37542 117.255 0.414517 112.237 0.238665 107.541C-0.163283 96.6468 0.0188497 85.721 0.31403 74.8141C0.552687 65.9586 4.54077 58.6874 11.1227 52.9373C27.5963 38.5653 44.1515 24.2879 60.6691 9.9727C63.0431 7.91504 65.392 5.84476 67.766 3.78711C73.814 -1.47065 81.6709 -1.22449 86.4566 4.35517C91.2486 9.94745 90.3693 17.7047 84.2898 23.0193C76.7282 29.6277 69.1602 36.2299 61.5609 42.7879C52.919 50.2485 52.09 57.7785 58.9859 66.836C59.1743 67.0822 59.3125 67.3536 59.5826 67.7828L59.5763 67.7765Z" fill="#363636"/>
</svg>
