<svg width="147" height="141" viewBox="0 0 147 141" fill="none" xmlns="http://www.w3.org/2000/svg">
<path d="M59.5699 67.7751C52.9189 75.4944 52.5798 84.9559 59.6704 93.2054C54.9475 98.1792 53.6538 104.163 54.8408 110.872C55.9901 117.348 59.7583 121.419 66.2272 121.893C72.4637 122.353 78.7504 122.24 85.012 122.202C87.3609 122.189 89.044 120.908 88.9122 118.27C88.7928 115.795 87.1348 114.842 84.8801 114.823C79.9688 114.786 75.0575 114.823 70.1525 114.798C65.3982 114.779 61.7932 110.872 61.812 105.785C61.8246 100.691 65.4107 96.8095 70.2153 96.7843C76.7972 96.7464 83.3791 96.7779 89.961 96.7716C90.903 96.7716 91.8388 96.7401 92.7809 96.7274C95.18 96.6959 96.6371 95.3704 96.6245 93.0855C96.612 90.788 95.1109 89.4878 92.7244 89.4815C85.4139 89.4625 78.0972 89.4688 70.7868 89.4499C66.2146 89.4436 63.3633 87.2597 62.1575 82.873C61.0835 78.9786 62.886 74.0617 66.2963 72.1744C67.3263 71.6064 68.6828 71.4359 69.895 71.417C75.5348 71.3413 81.1746 71.3981 86.8208 71.3791C90.4132 71.3665 91.9456 70.2935 92.0021 67.813C92.0649 65.244 90.3943 64.0006 86.6826 63.9754C81.3568 63.9438 76.0247 63.9754 70.6989 63.9627C65.4924 63.9501 62.1512 60.7626 61.8309 55.5238C61.5357 50.67 65.2286 45.5574 69.8259 45.4754C81.5201 45.2671 93.2457 45.0209 104.908 45.6458C114.046 46.1381 118.688 57.998 113.086 65.3387C112.081 66.6579 110.825 67.7877 110.14 68.5136C113.632 69.7507 117.865 70.5207 121.256 72.6415C125.113 75.0589 126.293 79.452 125.684 84.047C124.786 90.8448 119.768 94.3731 109.901 94.916C113.871 98.1855 116.647 101.802 116.351 106.94C116.056 112.09 113.205 115.575 108.124 118.592C117.626 118.592 126.136 118.617 134.653 118.579C137.912 118.566 140.883 119.317 143.294 121.602C146.516 124.657 147.766 128.381 146.516 132.736C145.241 137.148 142.39 139.932 137.787 140.677C136.556 140.872 135.293 140.992 134.05 140.992C101.04 140.999 68.0234 140.992 35.0134 140.973C20.5119 140.961 9.57761 134.718 3.3537 121.476C1.36908 117.254 0.40817 112.236 0.232317 107.54C-0.169631 96.6454 0.012502 85.7196 0.307683 74.8128C0.54634 65.9573 4.53442 58.686 11.1163 52.936C27.5899 38.5639 44.1452 24.2866 60.6627 9.97133C63.0367 7.91367 65.3856 5.84339 67.7596 3.78573C73.8077 -1.47202 81.6645 -1.22586 86.4502 4.3538C91.2422 9.94608 90.3629 17.7033 84.2835 23.0179C76.7218 29.6264 69.1539 36.2285 61.5545 42.7865C52.9127 50.2471 52.0836 57.7771 58.9796 66.8346C59.168 67.0808 59.3062 67.3522 59.5762 67.7814L59.5699 67.7751Z" fill="#36147A"/>
</svg>
