<svg id="Camada_1" data-name="Camada 1" xmlns="http://www.w3.org/2000/svg" viewBox="0 0 91.91 45.89"><defs><style>.cls-1{fill:none;stroke:#36147a;stroke-miterlimit:10;stroke-width:4px;}</style></defs><path class="cls-1" d="M46.09,10.51c2.38-4.38,6.15-9.8,11-6.42,3.87,2.68.42,8.29-1.32,11.44-1,1.75-2.88,6.55-1.85,9.81a4.19,4.19,0,0,0,3,3.13c4.39,1.41,6.76-2.91,7.16-3.58a24.19,24.19,0,0,0,3.15-7.21c-.69,2.54-1.17,3.57-1.11,5,.12,2.61,1.66,5.53,5.06,5.75,3.75.23,6.3-4.18,7.43-7,2.06-5.11,2.18-7.26,6.18-9.39a8.43,8.43,0,0,1,6.48-.52"/><path class="cls-1" d="M1.62,37.83C4,39.32,7.09,39.61,9,38.06c2.61-2.14,3.19-7.6,3.67-10.23,1-5.49,2.55-10.14,6.83-9.67,5.49.61,4.22,9.19,5.13,11.93a5.46,5.46,0,0,0,6,3.9,6.19,6.19,0,0,0,4.13-2.2c4.17-4.73,5.9-10.62,8.85-16.26"/></svg>