<svg width="221" height="233" viewBox="0 0 221 233" fill="none" xmlns="http://www.w3.org/2000/svg">
<path d="M211 232.5C216.523 232.5 221.047 228.014 220.548 222.514C219.542 211.426 216.864 200.534 212.589 190.213C207.035 176.807 198.896 164.626 188.635 154.365C178.374 144.104 166.193 135.964 152.786 130.411C139.38 124.858 125.011 122 110.5 122C95.9889 122 81.6199 124.858 68.2134 130.411C54.8069 135.964 42.6255 144.104 32.3646 154.365C22.1038 164.626 13.9644 176.807 8.41126 190.213C4.13616 200.534 1.4583 211.426 0.452134 222.514C-0.0469953 228.014 4.47711 232.5 9.99995 232.5L211 232.5Z" fill="#D9D9D9"/>
<path d="M161 50C161 77.6142 138.614 100 111 100C83.3857 100 61 77.6142 61 50C61 22.3858 83.3857 0 111 0C138.614 0 161 22.3858 161 50Z" fill="#D9D9D9"/>
</svg>
