<svg width="161" height="146" viewBox="0 0 161 146" fill="none" xmlns="http://www.w3.org/2000/svg">
<path d="M142.728 78.5734C142.728 78.9813 142.728 79.3893 142.728 79.7973C142.728 91.1888 142.74 102.58 142.728 113.978C142.715 121.755 140.426 128.759 135.348 134.747C130.321 140.678 123.913 144.274 116.218 145.517C114.288 145.831 112.308 145.975 110.352 145.975C91.4495 146.006 72.5465 145.956 53.6435 146C46.0685 146.019 39.1178 144.092 32.9935 139.648C26.1627 134.69 21.6971 128.125 20.259 119.734C19.8995 117.637 19.7544 115.484 19.7481 113.357C19.704 101.601 19.7292 89.8394 19.7292 78.0838C19.7292 77.8077 19.7292 77.5252 19.7292 76.998C19.067 77.6006 18.5687 78.0336 18.0956 78.4918C16.7459 79.8035 15.4213 81.1404 14.0653 82.4459C12.5326 83.9145 10.6782 84.743 8.56531 84.8183C4.34573 84.9752 0.769489 81.9438 0.107223 77.7386C-0.32798 75.0084 0.555041 72.6674 2.44723 70.7468C7.07048 66.0521 11.7505 61.4202 16.4242 56.7757C33.4224 39.8673 50.4268 22.9651 67.4187 6.06294C70.093 3.40177 73.1015 1.28665 76.867 0.451899C81.8939 -0.665288 86.5739 0.232227 90.5728 3.43943C93.1714 5.52317 95.4861 7.97722 97.8577 10.3308C117.776 30.1201 137.676 49.9219 157.594 69.7112C159.165 71.274 160.458 72.9561 160.874 75.1842C161.479 78.4604 159.915 81.8685 157.001 83.5945C153.747 85.5276 150.145 85.2137 147.181 82.6467C145.781 81.4354 144.5 80.0797 143.176 78.7805C143.081 78.6926 143.037 78.5546 142.967 78.4416C142.885 78.4792 142.81 78.5169 142.728 78.5608V78.5734ZM80.664 16.2431C79.5854 17.329 78.8033 18.1323 78.0023 18.9231C64.284 32.5616 50.5593 46.2001 36.8598 59.8574C36.6075 60.1084 36.4688 60.5854 36.4688 60.9557C36.4499 79.019 36.4499 97.0886 36.4688 115.152C36.4688 115.924 36.5508 116.721 36.7274 117.474C38.3547 124.384 44.8323 129.286 52.2875 129.286C71.5058 129.286 90.7241 129.28 109.942 129.274C110.731 129.274 111.513 129.292 112.301 129.274C119.145 129.073 125.225 123.43 125.805 116.652C125.969 114.763 125.824 112.855 125.824 110.953C125.824 103.421 125.812 95.8835 125.824 88.3519C125.837 80.1425 125.837 71.9268 125.944 63.7173C125.963 62.2298 125.534 61.2131 124.493 60.1775C110.081 45.8988 95.7069 31.5825 81.3326 17.2662C81.0803 17.0151 80.9289 16.6574 80.664 16.2494V16.2431Z" fill="black"/>
</svg>
